<svg width="202" height="36" viewBox="0 0 202 36" fill="none" xmlns="http://www.w3.org/2000/svg">
<path d="M59.6023 11.1813H62.6803V24.4813H59.6023V11.1813ZM53.5603 24.4813H50.4823V11.1813H53.5603V24.4813ZM59.8303 19.0283H53.3323V16.4253H59.8303V19.0283ZM70.691 24.6333C69.5257 24.6333 68.4997 24.4053 67.613 23.9493C66.739 23.4933 66.0613 22.8727 65.58 22.0873C65.0987 21.2893 64.858 20.3837 64.858 19.3703C64.858 18.3443 65.0923 17.4387 65.561 16.6533C66.0423 15.8553 66.6947 15.2347 67.518 14.7913C68.3413 14.3353 69.2723 14.1073 70.311 14.1073C71.3117 14.1073 72.211 14.3227 73.009 14.7533C73.8197 15.1713 74.4593 15.7793 74.928 16.5773C75.3967 17.3627 75.631 18.3063 75.631 19.4083C75.631 19.5223 75.6247 19.6553 75.612 19.8073C75.5993 19.9467 75.5867 20.0797 75.574 20.2063H67.271V18.4773H74.016L72.876 18.9903C72.876 18.4583 72.7683 17.996 72.553 17.6033C72.3377 17.2107 72.04 16.9067 71.66 16.6913C71.28 16.4633 70.8367 16.3493 70.33 16.3493C69.8233 16.3493 69.3737 16.4633 68.981 16.6913C68.601 16.9067 68.3033 17.217 68.088 17.6223C67.8727 18.015 67.765 18.4837 67.765 19.0283V19.4843C67.765 20.0417 67.8853 20.5357 68.126 20.9663C68.3793 21.3843 68.7277 21.7073 69.171 21.9353C69.627 22.1507 70.159 22.2583 70.767 22.2583C71.3117 22.2583 71.7867 22.176 72.192 22.0113C72.61 21.8467 72.99 21.5997 73.332 21.2703L74.909 22.9803C74.4403 23.5123 73.8513 23.924 73.142 24.2153C72.4327 24.494 71.6157 24.6333 70.691 24.6333ZM83.596 24.4813V22.4863L83.406 22.0493V18.4773C83.406 17.844 83.2097 17.35 82.817 16.9953C82.437 16.6407 81.848 16.4633 81.05 16.4633C80.5053 16.4633 79.967 16.552 79.435 16.7293C78.9157 16.894 78.4723 17.122 78.105 17.4133L77.041 15.3423C77.5983 14.9497 78.2697 14.6457 79.055 14.4303C79.8403 14.215 80.6383 14.1073 81.449 14.1073C83.007 14.1073 84.2167 14.4747 85.078 15.2093C85.9393 15.944 86.37 17.0903 86.37 18.6483V24.4813H83.596ZM80.48 24.6333C79.682 24.6333 78.998 24.5003 78.428 24.2343C77.858 23.9557 77.421 23.582 77.117 23.1133C76.813 22.6447 76.661 22.119 76.661 21.5363C76.661 20.9283 76.8067 20.3963 77.098 19.9403C77.402 19.4843 77.877 19.1297 78.523 18.8763C79.169 18.6103 80.0113 18.4773 81.05 18.4773H83.767V20.2063H81.373C80.6763 20.2063 80.195 20.3203 79.929 20.5483C79.6757 20.7763 79.549 21.0613 79.549 21.4033C79.549 21.7833 79.6947 22.0873 79.986 22.3153C80.29 22.5307 80.7017 22.6383 81.221 22.6383C81.715 22.6383 82.1583 22.5243 82.551 22.2963C82.9437 22.0557 83.2287 21.7073 83.406 21.2513L83.862 22.6193C83.6467 23.278 83.254 23.7783 82.684 24.1203C82.114 24.4623 81.3793 24.6333 80.48 24.6333ZM89.0526 24.4813V10.3833H92.0166V24.4813H89.0526ZM99.7082 24.6333C98.5048 24.6333 97.5675 24.3293 96.8962 23.7213C96.2248 23.1007 95.8892 22.1823 95.8892 20.9663V11.9983H98.8532V20.9283C98.8532 21.359 98.9672 21.6947 99.1952 21.9353C99.4232 22.1633 99.7335 22.2773 100.126 22.2773C100.595 22.2773 100.994 22.1507 101.323 21.8973L102.121 23.9873C101.817 24.2027 101.45 24.3673 101.019 24.4813C100.601 24.5827 100.164 24.6333 99.7082 24.6333ZM94.3122 16.7673V14.4873H101.399V16.7673H94.3122ZM108.25 24.5953C107.262 24.5953 106.312 24.437 105.4 24.1203C104.501 23.791 103.804 23.373 103.31 22.8663L103.861 21.7833C104.33 22.2393 104.957 22.6257 105.742 22.9423C106.54 23.2463 107.376 23.3983 108.25 23.3983C109.086 23.3983 109.764 23.297 110.283 23.0943C110.815 22.879 111.201 22.594 111.442 22.2393C111.695 21.8847 111.822 21.492 111.822 21.0613C111.822 20.542 111.67 20.124 111.366 19.8073C111.075 19.4907 110.688 19.2437 110.207 19.0663C109.726 18.8763 109.194 18.7117 108.611 18.5723C108.028 18.433 107.446 18.2873 106.863 18.1353C106.28 17.9707 105.742 17.7553 105.248 17.4893C104.767 17.2233 104.374 16.875 104.07 16.4443C103.779 16.001 103.633 15.4247 103.633 14.7153C103.633 14.0567 103.804 13.455 104.146 12.9103C104.501 12.353 105.039 11.9097 105.761 11.5803C106.483 11.2383 107.408 11.0673 108.535 11.0673C109.282 11.0673 110.023 11.175 110.758 11.3903C111.493 11.593 112.126 11.878 112.658 12.2453L112.183 13.3663C111.613 12.9863 111.005 12.7077 110.359 12.5303C109.726 12.353 109.111 12.2643 108.516 12.2643C107.718 12.2643 107.059 12.372 106.54 12.5873C106.021 12.8027 105.634 13.094 105.381 13.4613C105.14 13.816 105.02 14.2213 105.02 14.6773C105.02 15.1967 105.166 15.6147 105.457 15.9313C105.761 16.248 106.154 16.495 106.635 16.6723C107.129 16.8497 107.667 17.008 108.25 17.1473C108.833 17.2867 109.409 17.4387 109.979 17.6033C110.562 17.768 111.094 17.9833 111.575 18.2493C112.069 18.5027 112.462 18.8447 112.753 19.2753C113.057 19.706 113.209 20.2697 113.209 20.9663C113.209 21.6123 113.032 22.214 112.677 22.7713C112.322 23.316 111.778 23.7593 111.043 24.1013C110.321 24.4307 109.39 24.5953 108.25 24.5953ZM121.136 24.5763C120.275 24.5763 119.496 24.38 118.799 23.9873C118.103 23.582 117.545 23.0057 117.127 22.2583C116.722 21.4983 116.519 20.5737 116.519 19.4843C116.519 18.395 116.722 17.4767 117.127 16.7293C117.533 15.9693 118.084 15.393 118.78 15.0003C119.477 14.6077 120.262 14.4113 121.136 14.4113C122.086 14.4113 122.935 14.6267 123.682 15.0573C124.442 15.4753 125.038 16.0707 125.468 16.8433C125.899 17.6033 126.114 18.4837 126.114 19.4843C126.114 20.4977 125.899 21.3843 125.468 22.1443C125.038 22.9043 124.442 23.4997 123.682 23.9303C122.935 24.361 122.086 24.5763 121.136 24.5763ZM115.987 28.1673V14.5063H117.279V17.5083L117.146 19.5033L117.336 21.5173V28.1673H115.987ZM121.041 23.3793C121.751 23.3793 122.384 23.221 122.941 22.9043C123.499 22.575 123.942 22.119 124.271 21.5363C124.601 20.941 124.765 20.257 124.765 19.4843C124.765 18.7117 124.601 18.034 124.271 17.4513C123.942 16.8687 123.499 16.4127 122.941 16.0833C122.384 15.754 121.751 15.5893 121.041 15.5893C120.332 15.5893 119.692 15.754 119.122 16.0833C118.565 16.4127 118.122 16.8687 117.792 17.4513C117.476 18.034 117.317 18.7117 117.317 19.4843C117.317 20.257 117.476 20.941 117.792 21.5363C118.122 22.119 118.565 22.575 119.122 22.9043C119.692 23.221 120.332 23.3793 121.041 23.3793ZM133.101 24.5763C132.063 24.5763 131.151 24.361 130.365 23.9303C129.58 23.487 128.966 22.8853 128.522 22.1253C128.079 21.3527 127.857 20.4723 127.857 19.4843C127.857 18.4963 128.066 17.6223 128.484 16.8623C128.915 16.1023 129.498 15.507 130.232 15.0763C130.98 14.633 131.816 14.4113 132.74 14.4113C133.678 14.4113 134.507 14.6267 135.229 15.0573C135.964 15.4753 136.54 16.0707 136.958 16.8433C137.376 17.6033 137.585 18.4837 137.585 19.4843C137.585 19.5477 137.579 19.6173 137.566 19.6933C137.566 19.7567 137.566 19.8263 137.566 19.9023H128.883V18.8953H136.844L136.312 19.2943C136.312 18.5723 136.154 17.9327 135.837 17.3753C135.533 16.8053 135.115 16.362 134.583 16.0453C134.051 15.7287 133.437 15.5703 132.74 15.5703C132.056 15.5703 131.442 15.7287 130.897 16.0453C130.353 16.362 129.928 16.8053 129.624 17.3753C129.32 17.9453 129.168 18.5977 129.168 19.3323V19.5413C129.168 20.3013 129.333 20.9727 129.662 21.5553C130.004 22.1253 130.473 22.575 131.068 22.9043C131.676 23.221 132.367 23.3793 133.139 23.3793C133.747 23.3793 134.311 23.2717 134.83 23.0563C135.362 22.841 135.818 22.5117 136.198 22.0683L136.958 22.9423C136.515 23.4743 135.958 23.8797 135.286 24.1583C134.628 24.437 133.899 24.5763 133.101 24.5763ZM144.473 24.5763C143.485 24.5763 142.599 24.361 141.813 23.9303C141.041 23.487 140.433 22.8853 139.989 22.1253C139.546 21.3527 139.324 20.4723 139.324 19.4843C139.324 18.4837 139.546 17.6033 139.989 16.8433C140.433 16.0833 141.041 15.488 141.813 15.0573C142.599 14.6267 143.485 14.4113 144.473 14.4113C145.322 14.4113 146.088 14.576 146.772 14.9053C147.456 15.2347 147.995 15.7287 148.387 16.3873L147.38 17.0713C147.038 16.5647 146.614 16.191 146.107 15.9503C145.601 15.7097 145.05 15.5893 144.454 15.5893C143.745 15.5893 143.105 15.754 142.535 16.0833C141.965 16.4 141.516 16.8497 141.186 17.4323C140.857 18.015 140.692 18.699 140.692 19.4843C140.692 20.2697 140.857 20.9537 141.186 21.5363C141.516 22.119 141.965 22.575 142.535 22.9043C143.105 23.221 143.745 23.3793 144.454 23.3793C145.05 23.3793 145.601 23.259 146.107 23.0183C146.614 22.7777 147.038 22.4103 147.38 21.9163L148.387 22.6003C147.995 23.2463 147.456 23.7403 146.772 24.0823C146.088 24.4117 145.322 24.5763 144.473 24.5763ZM150.889 24.4813V14.5063H152.238V24.4813H150.889ZM151.573 12.3023C151.294 12.3023 151.06 12.2073 150.87 12.0173C150.68 11.8273 150.585 11.5993 150.585 11.3333C150.585 11.0673 150.68 10.8457 150.87 10.6683C151.06 10.4783 151.294 10.3833 151.573 10.3833C151.851 10.3833 152.086 10.472 152.276 10.6493C152.466 10.8267 152.561 11.0483 152.561 11.3143C152.561 11.593 152.466 11.8273 152.276 12.0173C152.098 12.2073 151.864 12.3023 151.573 12.3023ZM162.242 24.4813V22.2773L162.185 21.9163V18.2303C162.185 17.3817 161.945 16.7293 161.463 16.2733C160.995 15.8173 160.292 15.5893 159.354 15.5893C158.708 15.5893 158.094 15.697 157.511 15.9123C156.929 16.1277 156.435 16.4127 156.029 16.7673L155.421 15.7603C155.928 15.3297 156.536 15.0003 157.245 14.7723C157.955 14.5317 158.702 14.4113 159.487 14.4113C160.779 14.4113 161.774 14.7343 162.47 15.3803C163.18 16.0137 163.534 16.9827 163.534 18.2873V24.4813H162.242ZM158.803 24.5763C158.056 24.5763 157.404 24.456 156.846 24.2153C156.302 23.962 155.884 23.62 155.592 23.1893C155.301 22.746 155.155 22.2393 155.155 21.6693C155.155 21.15 155.276 20.6813 155.516 20.2633C155.77 19.8327 156.175 19.4907 156.732 19.2373C157.302 18.9713 158.062 18.8383 159.012 18.8383H162.451V19.8453H159.05C158.088 19.8453 157.416 20.0163 157.036 20.3583C156.669 20.7003 156.485 21.1247 156.485 21.6313C156.485 22.2013 156.707 22.6573 157.15 22.9993C157.594 23.3413 158.214 23.5123 159.012 23.5123C159.772 23.5123 160.425 23.3413 160.969 22.9993C161.527 22.6447 161.932 22.138 162.185 21.4793L162.489 22.4103C162.236 23.069 161.793 23.5947 161.159 23.9873C160.539 24.38 159.753 24.5763 158.803 24.5763ZM167.198 24.4813V10.3833H168.547V24.4813H167.198ZM172.301 24.4813V14.5063H173.65V24.4813H172.301ZM172.985 12.3023C172.706 12.3023 172.472 12.2073 172.282 12.0173C172.092 11.8273 171.997 11.5993 171.997 11.3333C171.997 11.0673 172.092 10.8457 172.282 10.6683C172.472 10.4783 172.706 10.3833 172.985 10.3833C173.264 10.3833 173.498 10.472 173.688 10.6493C173.878 10.8267 173.973 11.0483 173.973 11.3143C173.973 11.593 173.878 11.8273 173.688 12.0173C173.511 12.2073 173.276 12.3023 172.985 12.3023ZM180.082 24.5763C179.259 24.5763 178.48 24.4623 177.745 24.2343C177.011 23.9937 176.434 23.696 176.016 23.3413L176.624 22.2773C177.03 22.5813 177.549 22.8473 178.182 23.0753C178.816 23.2907 179.481 23.3983 180.177 23.3983C181.127 23.3983 181.811 23.2527 182.229 22.9613C182.647 22.6573 182.856 22.2583 182.856 21.7643C182.856 21.397 182.736 21.112 182.495 20.9093C182.267 20.694 181.963 20.5357 181.583 20.4343C181.203 20.3203 180.779 20.2253 180.31 20.1493C179.842 20.0733 179.373 19.9847 178.904 19.8833C178.448 19.782 178.03 19.6363 177.65 19.4463C177.27 19.2437 176.96 18.9713 176.719 18.6293C176.491 18.2873 176.377 17.8313 176.377 17.2613C176.377 16.7167 176.529 16.229 176.833 15.7983C177.137 15.3677 177.581 15.032 178.163 14.7913C178.759 14.538 179.481 14.4113 180.329 14.4113C180.975 14.4113 181.621 14.5 182.267 14.6773C182.913 14.842 183.445 15.0637 183.863 15.3423L183.274 16.4253C182.831 16.1213 182.356 15.906 181.849 15.7793C181.343 15.64 180.836 15.5703 180.329 15.5703C179.43 15.5703 178.765 15.7287 178.334 16.0453C177.916 16.3493 177.707 16.742 177.707 17.2233C177.707 17.6033 177.821 17.901 178.049 18.1163C178.29 18.3317 178.6 18.5027 178.98 18.6293C179.373 18.7433 179.797 18.8383 180.253 18.9143C180.722 18.9903 181.184 19.0853 181.64 19.1993C182.109 19.3007 182.533 19.4463 182.913 19.6363C183.306 19.8137 183.616 20.0733 183.844 20.4153C184.085 20.7447 184.205 21.1817 184.205 21.7263C184.205 22.309 184.041 22.8157 183.711 23.2463C183.395 23.6643 182.926 23.9937 182.305 24.2343C181.697 24.4623 180.956 24.5763 180.082 24.5763ZM189.835 24.5763C188.897 24.5763 188.175 24.323 187.669 23.8163C187.162 23.3097 186.909 22.594 186.909 21.6693V12.3023H188.258V21.5933C188.258 22.176 188.403 22.6257 188.695 22.9423C188.999 23.259 189.429 23.4173 189.987 23.4173C190.582 23.4173 191.076 23.2463 191.469 22.9043L191.944 23.8733C191.678 24.114 191.355 24.2913 190.975 24.4053C190.607 24.5193 190.227 24.5763 189.835 24.5763ZM185.123 15.6273V14.5063H191.298V15.6273H185.123Z" fill="#4593FF"/>
<ellipse cx="6.91053" cy="18.0001" rx="6.91053" ry="6.51055" fill="#4593FF"/>
<ellipse cx="31.3632" cy="18.0001" rx="6.91053" ry="6.51055" fill="#4593FF"/>
<ellipse cx="20.0073" cy="29.4894" rx="6.51055" ry="6.91053" transform="rotate(-90 20.0073 29.4894)" fill="#4593FF"/>
<ellipse cx="18.2664" cy="6.51057" rx="6.51055" ry="6.91053" transform="rotate(-90 18.2664 6.51057)" fill="#4593FF"/>
</svg>
