<svg width="190" height="36" viewBox="0 0 190 36" fill="none" xmlns="http://www.w3.org/2000/svg">
<path d="M56.697 11.1709H59.775V24.4709H56.697V11.1709ZM50.655 24.4709H47.577V11.1709H50.655V24.4709ZM56.925 19.0179H50.427V16.4149H56.925V19.0179ZM67.7857 24.6229C66.6204 24.6229 65.5944 24.3949 64.7077 23.9389C63.8337 23.4829 63.1561 22.8622 62.6747 22.0769C62.1934 21.2789 61.9527 20.3732 61.9527 19.3599C61.9527 18.3339 62.1871 17.4282 62.6557 16.6429C63.1371 15.8449 63.7894 15.2242 64.6127 14.7809C65.4361 14.3249 66.3671 14.0969 67.4057 14.0969C68.4064 14.0969 69.3057 14.3122 70.1037 14.7429C70.9144 15.1609 71.5541 15.7689 72.0227 16.5669C72.4914 17.3522 72.7257 18.2959 72.7257 19.3979C72.7257 19.5119 72.7194 19.6449 72.7067 19.7969C72.6941 19.9362 72.6814 20.0692 72.6687 20.1959H64.3657V18.4669H71.1107L69.9707 18.9799C69.9707 18.4479 69.8631 17.9855 69.6477 17.5929C69.4324 17.2002 69.1347 16.8962 68.7547 16.6809C68.3747 16.4529 67.9314 16.3389 67.4247 16.3389C66.9181 16.3389 66.4684 16.4529 66.0757 16.6809C65.6957 16.8962 65.3981 17.2065 65.1827 17.6119C64.9674 18.0045 64.8597 18.4732 64.8597 19.0179V19.4739C64.8597 20.0312 64.9801 20.5252 65.2207 20.9559C65.4741 21.3739 65.8224 21.6969 66.2657 21.9249C66.7217 22.1402 67.2537 22.2479 67.8617 22.2479C68.4064 22.2479 68.8814 22.1655 69.2867 22.0009C69.7047 21.8362 70.0847 21.5892 70.4267 21.2599L72.0037 22.9699C71.5351 23.5019 70.9461 23.9135 70.2367 24.2049C69.5274 24.4835 68.7104 24.6229 67.7857 24.6229ZM80.6907 24.4709V22.4759L80.5007 22.0389V18.4669C80.5007 17.8335 80.3044 17.3395 79.9117 16.9849C79.5317 16.6302 78.9427 16.4529 78.1447 16.4529C77.6001 16.4529 77.0617 16.5415 76.5297 16.7189C76.0104 16.8835 75.5671 17.1115 75.1997 17.4029L74.1357 15.3319C74.6931 14.9392 75.3644 14.6352 76.1497 14.4199C76.9351 14.2045 77.7331 14.0969 78.5437 14.0969C80.1017 14.0969 81.3114 14.4642 82.1727 15.1989C83.0341 15.9335 83.4647 17.0799 83.4647 18.6379V24.4709H80.6907ZM77.5747 24.6229C76.7767 24.6229 76.0927 24.4899 75.5227 24.2239C74.9527 23.9452 74.5157 23.5715 74.2117 23.1029C73.9077 22.6342 73.7557 22.1085 73.7557 21.5259C73.7557 20.9179 73.9014 20.3859 74.1927 19.9299C74.4967 19.4739 74.9717 19.1192 75.6177 18.8659C76.2637 18.5999 77.1061 18.4669 78.1447 18.4669H80.8617V20.1959H78.4677C77.7711 20.1959 77.2897 20.3099 77.0237 20.5379C76.7704 20.7659 76.6437 21.0509 76.6437 21.3929C76.6437 21.7729 76.7894 22.0769 77.0807 22.3049C77.3847 22.5202 77.7964 22.6279 78.3157 22.6279C78.8097 22.6279 79.2531 22.5139 79.6457 22.2859C80.0384 22.0452 80.3234 21.6969 80.5007 21.2409L80.9567 22.6089C80.7414 23.2675 80.3487 23.7679 79.7787 24.1099C79.2087 24.4519 78.4741 24.6229 77.5747 24.6229ZM86.1473 24.4709V10.3729H89.1113V24.4709H86.1473ZM96.8029 24.6229C95.5995 24.6229 94.6622 24.3189 93.9909 23.7109C93.3195 23.0902 92.9839 22.1719 92.9839 20.9559V11.9879H95.9479V20.9179C95.9479 21.3485 96.0619 21.6842 96.2899 21.9249C96.5179 22.1529 96.8282 22.2669 97.2209 22.2669C97.6895 22.2669 98.0885 22.1402 98.4179 21.8869L99.2159 23.9769C98.9119 24.1922 98.5445 24.3569 98.1139 24.4709C97.6959 24.5722 97.2589 24.6229 96.8029 24.6229ZM91.4069 16.7569V14.4769H98.4939V16.7569H91.4069ZM105.345 24.5849C104.357 24.5849 103.407 24.4265 102.495 24.1099C101.595 23.7805 100.899 23.3625 100.405 22.8559L100.956 21.7729C101.424 22.2289 102.051 22.6152 102.837 22.9319C103.635 23.2359 104.471 23.3879 105.345 23.3879C106.181 23.3879 106.858 23.2865 107.378 23.0839C107.91 22.8685 108.296 22.5835 108.537 22.2289C108.79 21.8742 108.917 21.4815 108.917 21.0509C108.917 20.5315 108.765 20.1135 108.461 19.7969C108.169 19.4802 107.783 19.2332 107.302 19.0559C106.82 18.8659 106.288 18.7012 105.706 18.5619C105.123 18.4225 104.54 18.2769 103.958 18.1249C103.375 17.9602 102.837 17.7449 102.343 17.4789C101.861 17.2129 101.469 16.8645 101.165 16.4339C100.873 15.9905 100.728 15.4142 100.728 14.7049C100.728 14.0462 100.899 13.4445 101.241 12.8999C101.595 12.3425 102.134 11.8992 102.856 11.5699C103.578 11.2279 104.502 11.0569 105.63 11.0569C106.377 11.0569 107.118 11.1645 107.853 11.3799C108.587 11.5825 109.221 11.8675 109.753 12.2349L109.278 13.3559C108.708 12.9759 108.1 12.6972 107.454 12.5199C106.82 12.3425 106.206 12.2539 105.611 12.2539C104.813 12.2539 104.154 12.3615 103.635 12.5769C103.115 12.7922 102.729 13.0835 102.476 13.4509C102.235 13.8055 102.115 14.2109 102.115 14.6669C102.115 15.1862 102.26 15.6042 102.552 15.9209C102.856 16.2375 103.248 16.4845 103.73 16.6619C104.224 16.8392 104.762 16.9975 105.345 17.1369C105.927 17.2762 106.504 17.4282 107.074 17.5929C107.656 17.7575 108.188 17.9729 108.67 18.2389C109.164 18.4922 109.556 18.8342 109.848 19.2649C110.152 19.6955 110.304 20.2592 110.304 20.9559C110.304 21.6019 110.126 22.2035 109.772 22.7609C109.417 23.3055 108.872 23.7489 108.138 24.0909C107.416 24.4202 106.485 24.5849 105.345 24.5849ZM118.231 24.5659C117.37 24.5659 116.591 24.3695 115.894 23.9769C115.198 23.5715 114.64 22.9952 114.222 22.2479C113.817 21.4879 113.614 20.5632 113.614 19.4739C113.614 18.3845 113.817 17.4662 114.222 16.7189C114.628 15.9589 115.179 15.3825 115.875 14.9899C116.572 14.5972 117.357 14.4009 118.231 14.4009C119.181 14.4009 120.03 14.6162 120.777 15.0469C121.537 15.4649 122.133 16.0602 122.563 16.8329C122.994 17.5929 123.209 18.4732 123.209 19.4739C123.209 20.4872 122.994 21.3739 122.563 22.1339C122.133 22.8939 121.537 23.4892 120.777 23.9199C120.03 24.3505 119.181 24.5659 118.231 24.5659ZM113.082 28.1569V14.4959H114.374V17.4979L114.241 19.4929L114.431 21.5069V28.1569H113.082ZM118.136 23.3689C118.846 23.3689 119.479 23.2105 120.036 22.8939C120.594 22.5645 121.037 22.1085 121.366 21.5259C121.696 20.9305 121.86 20.2465 121.86 19.4739C121.86 18.7012 121.696 18.0235 121.366 17.4409C121.037 16.8582 120.594 16.4022 120.036 16.0729C119.479 15.7435 118.846 15.5789 118.136 15.5789C117.427 15.5789 116.787 15.7435 116.217 16.0729C115.66 16.4022 115.217 16.8582 114.887 17.4409C114.571 18.0235 114.412 18.7012 114.412 19.4739C114.412 20.2465 114.571 20.9305 114.887 21.5259C115.217 22.1085 115.66 22.5645 116.217 22.8939C116.787 23.2105 117.427 23.3689 118.136 23.3689ZM130.196 24.5659C129.157 24.5659 128.245 24.3505 127.46 23.9199C126.675 23.4765 126.06 22.8749 125.617 22.1149C125.174 21.3422 124.952 20.4619 124.952 19.4739C124.952 18.4859 125.161 17.6119 125.579 16.8519C126.01 16.0919 126.592 15.4965 127.327 15.0659C128.074 14.6225 128.91 14.4009 129.835 14.4009C130.772 14.4009 131.602 14.6162 132.324 15.0469C133.059 15.4649 133.635 16.0602 134.053 16.8329C134.471 17.5929 134.68 18.4732 134.68 19.4739C134.68 19.5372 134.674 19.6069 134.661 19.6829C134.661 19.7462 134.661 19.8159 134.661 19.8919H125.978V18.8849H133.939L133.407 19.2839C133.407 18.5619 133.249 17.9222 132.932 17.3649C132.628 16.7949 132.21 16.3515 131.678 16.0349C131.146 15.7182 130.532 15.5599 129.835 15.5599C129.151 15.5599 128.537 15.7182 127.992 16.0349C127.447 16.3515 127.023 16.7949 126.719 17.3649C126.415 17.9349 126.263 18.5872 126.263 19.3219V19.5309C126.263 20.2909 126.428 20.9622 126.757 21.5449C127.099 22.1149 127.568 22.5645 128.163 22.8939C128.771 23.2105 129.461 23.3689 130.234 23.3689C130.842 23.3689 131.406 23.2612 131.925 23.0459C132.457 22.8305 132.913 22.5012 133.293 22.0579L134.053 22.9319C133.61 23.4639 133.052 23.8692 132.381 24.1479C131.722 24.4265 130.994 24.5659 130.196 24.5659ZM141.568 24.5659C140.58 24.5659 139.693 24.3505 138.908 23.9199C138.135 23.4765 137.527 22.8749 137.084 22.1149C136.641 21.3422 136.419 20.4619 136.419 19.4739C136.419 18.4732 136.641 17.5929 137.084 16.8329C137.527 16.0729 138.135 15.4775 138.908 15.0469C139.693 14.6162 140.58 14.4009 141.568 14.4009C142.417 14.4009 143.183 14.5655 143.867 14.8949C144.551 15.2242 145.089 15.7182 145.482 16.3769L144.475 17.0609C144.133 16.5542 143.709 16.1805 143.202 15.9399C142.695 15.6992 142.144 15.5789 141.549 15.5789C140.84 15.5789 140.2 15.7435 139.63 16.0729C139.06 16.3895 138.61 16.8392 138.281 17.4219C137.952 18.0045 137.787 18.6885 137.787 19.4739C137.787 20.2592 137.952 20.9432 138.281 21.5259C138.61 22.1085 139.06 22.5645 139.63 22.8939C140.2 23.2105 140.84 23.3689 141.549 23.3689C142.144 23.3689 142.695 23.2485 143.202 23.0079C143.709 22.7672 144.133 22.3999 144.475 21.9059L145.482 22.5899C145.089 23.2359 144.551 23.7299 143.867 24.0719C143.183 24.4012 142.417 24.5659 141.568 24.5659ZM147.984 24.4709V14.4959H149.333V24.4709H147.984ZM148.668 12.2919C148.389 12.2919 148.155 12.1969 147.965 12.0069C147.775 11.8169 147.68 11.5889 147.68 11.3229C147.68 11.0569 147.775 10.8352 147.965 10.6579C148.155 10.4679 148.389 10.3729 148.668 10.3729C148.946 10.3729 149.181 10.4615 149.371 10.6389C149.561 10.8162 149.656 11.0379 149.656 11.3039C149.656 11.5825 149.561 11.8169 149.371 12.0069C149.193 12.1969 148.959 12.2919 148.668 12.2919ZM159.337 24.4709V22.2669L159.28 21.9059V18.2199C159.28 17.3712 159.039 16.7189 158.558 16.2629C158.089 15.8069 157.386 15.5789 156.449 15.5789C155.803 15.5789 155.189 15.6865 154.606 15.9019C154.023 16.1172 153.529 16.4022 153.124 16.7569L152.516 15.7499C153.023 15.3192 153.631 14.9899 154.34 14.7619C155.049 14.5212 155.797 14.4009 156.582 14.4009C157.874 14.4009 158.868 14.7239 159.565 15.3699C160.274 16.0032 160.629 16.9722 160.629 18.2769V24.4709H159.337ZM155.898 24.5659C155.151 24.5659 154.498 24.4455 153.941 24.2049C153.396 23.9515 152.978 23.6095 152.687 23.1789C152.396 22.7355 152.25 22.2289 152.25 21.6589C152.25 21.1395 152.37 20.6709 152.611 20.2529C152.864 19.8222 153.27 19.4802 153.827 19.2269C154.397 18.9609 155.157 18.8279 156.107 18.8279H159.546V19.8349H156.145C155.182 19.8349 154.511 20.0059 154.131 20.3479C153.764 20.6899 153.58 21.1142 153.58 21.6209C153.58 22.1909 153.802 22.6469 154.245 22.9889C154.688 23.3309 155.309 23.5019 156.107 23.5019C156.867 23.5019 157.519 23.3309 158.064 22.9889C158.621 22.6342 159.027 22.1275 159.28 21.4689L159.584 22.3999C159.331 23.0585 158.887 23.5842 158.254 23.9769C157.633 24.3695 156.848 24.5659 155.898 24.5659ZM164.293 24.4709V10.3729H165.642V24.4709H164.293ZM169.396 24.4709V14.4959H170.745V24.4709H169.396ZM170.08 12.2919C169.801 12.2919 169.567 12.1969 169.377 12.0069C169.187 11.8169 169.092 11.5889 169.092 11.3229C169.092 11.0569 169.187 10.8352 169.377 10.6579C169.567 10.4679 169.801 10.3729 170.08 10.3729C170.358 10.3729 170.593 10.4615 170.783 10.6389C170.973 10.8162 171.068 11.0379 171.068 11.3039C171.068 11.5825 170.973 11.8169 170.783 12.0069C170.605 12.1969 170.371 12.2919 170.08 12.2919ZM177.177 24.5659C176.354 24.5659 175.575 24.4519 174.84 24.2239C174.106 23.9832 173.529 23.6855 173.111 23.3309L173.719 22.2669C174.125 22.5709 174.644 22.8369 175.277 23.0649C175.911 23.2802 176.576 23.3879 177.272 23.3879C178.222 23.3879 178.906 23.2422 179.324 22.9509C179.742 22.6469 179.951 22.2479 179.951 21.7539C179.951 21.3865 179.831 21.1015 179.59 20.8989C179.362 20.6835 179.058 20.5252 178.678 20.4239C178.298 20.3099 177.874 20.2149 177.405 20.1389C176.937 20.0629 176.468 19.9742 175.999 19.8729C175.543 19.7715 175.125 19.6259 174.745 19.4359C174.365 19.2332 174.055 18.9609 173.814 18.6189C173.586 18.2769 173.472 17.8209 173.472 17.2509C173.472 16.7062 173.624 16.2185 173.928 15.7879C174.232 15.3572 174.676 15.0215 175.258 14.7809C175.854 14.5275 176.576 14.4009 177.424 14.4009C178.07 14.4009 178.716 14.4895 179.362 14.6669C180.008 14.8315 180.54 15.0532 180.958 15.3319L180.369 16.4149C179.926 16.1109 179.451 15.8955 178.944 15.7689C178.438 15.6295 177.931 15.5599 177.424 15.5599C176.525 15.5599 175.86 15.7182 175.429 16.0349C175.011 16.3389 174.802 16.7315 174.802 17.2129C174.802 17.5929 174.916 17.8905 175.144 18.1059C175.385 18.3212 175.695 18.4922 176.075 18.6189C176.468 18.7329 176.892 18.8279 177.348 18.9039C177.817 18.9799 178.279 19.0749 178.735 19.1889C179.204 19.2902 179.628 19.4359 180.008 19.6259C180.401 19.8032 180.711 20.0629 180.939 20.4049C181.18 20.7342 181.3 21.1712 181.3 21.7159C181.3 22.2985 181.136 22.8052 180.806 23.2359C180.49 23.6539 180.021 23.9832 179.4 24.2239C178.792 24.4519 178.051 24.5659 177.177 24.5659ZM186.93 24.5659C185.992 24.5659 185.27 24.3125 184.764 23.8059C184.257 23.2992 184.004 22.5835 184.004 21.6589V12.2919H185.353V21.5829C185.353 22.1655 185.498 22.6152 185.79 22.9319C186.094 23.2485 186.524 23.4069 187.082 23.4069C187.677 23.4069 188.171 23.2359 188.564 22.8939L189.039 23.8629C188.773 24.1035 188.45 24.2809 188.07 24.3949C187.702 24.5089 187.322 24.5659 186.93 24.5659ZM182.218 15.6169V14.4959H188.393V15.6169H182.218Z" fill="#F8FBFF"/>
<circle cx="6.5" cy="17.9709" r="6.5" fill="#F8FBFF"/>
<circle cx="29.5" cy="17.9709" r="6.5" fill="#F8FBFF"/>
<circle cx="18.8188" cy="29.4417" r="6.5" transform="rotate(-90 18.8188 29.4417)" fill="#F8FBFF"/>
<circle cx="17.1812" cy="6.5" r="6.5" transform="rotate(-90 17.1812 6.5)" fill="#F8FBFF"/>
</svg>
