<svg width="79" height="65" viewBox="0 0 79 65" fill="none" xmlns="http://www.w3.org/2000/svg">
<path d="M7 54.4003C14.4009 54.8168 20.8727 53.0867 27.1844 48.5051C20.8087 47.4158 16.3873 44.5003 13.9844 38.477C15.8427 38.2207 17.4767 38.7013 19.399 37.9324C13.1194 35.1771 9.05048 31.0441 8.89029 23.8994C10.8767 24.0596 12.3825 25.3732 14.7534 25.181C8.98642 19.5422 7.22427 13.3908 10.8446 5.92575C16.8679 12.8461 23.9164 17.5558 32.5348 19.7665C33.0154 19.8946 33.4639 20.0228 33.9445 20.1189C36.1552 20.6315 38.7824 21.7208 40.128 21.5606C42.4348 21.2723 40.128 18.6131 40.7047 15.1529C42.5309 4.38789 54.3852 -0.514024 63.1638 5.79759C65.7269 7.65584 67.7453 7.6238 70.2764 6.50245C71.59 5.92575 72.9356 5.34905 74.5055 4.67624C74.1531 7.75195 71.7822 9.45 69.8919 11.7247C72.0385 12.2053 73.7686 11.5966 75.755 10.9558C75.0822 13.1665 73.4162 14.416 71.9103 15.6335C70.3404 16.883 69.7317 18.1966 69.6676 20.247C68.7065 51.2925 33.4319 75.2895 9.30681 56.1944C6.96798 54.3362 9.24271 56.1944 7 54.4003Z" stroke="black" stroke-width="4"/>
</svg>
