<svg width="64" height="64" viewBox="0 0 64 64" fill="none" xmlns="http://www.w3.org/2000/svg">
<path d="M51.9713 62H12.0288C6.50924 62 2 57.4908 2 51.9713V12.0287C2 6.50924 6.50924 2 12.0288 2H51.9713C57.4908 2 62 6.50924 62 12.0287V51.9713C62 57.5154 57.5154 62 51.9713 62Z" stroke="black" stroke-width="4"/>
<path d="M21.1212 42.9035C24.0288 45.8111 27.8974 47.4128 32.0123 47.4128C36.1273 47.4128 39.9713 45.8111 42.9035 42.9035C45.8111 39.9959 47.4128 36.1273 47.4128 32.0123C47.4128 27.8974 45.8111 24.0288 42.9035 21.1212C39.9959 18.2136 36.1273 16.6119 32.0123 16.6119C27.8974 16.6119 24.0288 18.2136 21.1212 21.1212C18.2136 24.0288 16.6119 27.8974 16.6119 32.0123C16.6119 36.1273 18.2136 39.9959 21.1212 42.9035Z" stroke="black" stroke-width="4"/>
<path d="M50.4145 16.1058C52.0476 16.1058 53.3715 14.782 53.3715 13.1489C53.3715 11.5158 52.0476 10.1919 50.4145 10.1919C48.7815 10.1919 47.4576 11.5158 47.4576 13.1489C47.4576 14.782 48.7815 16.1058 50.4145 16.1058Z" stroke="black" stroke-width="4"/>
</svg>
